<svg id="Layer_4" data-name="Layer 4" xmlns="http://www.w3.org/2000/svg" width="302.81" height="146.3" viewBox="0 0 302.81 146.3"><defs><style>.cls-1,.cls-2,.cls-3,.cls-4,.cls-5,.cls-6,.cls-7,.cls-8{fill:none;stroke:#0b181d;stroke-width:3px;}.cls-1,.cls-5{stroke-linecap:round;}.cls-1{stroke-linejoin:round;}.cls-2,.cls-3,.cls-4,.cls-5,.cls-6,.cls-7,.cls-8{stroke-miterlimit:10;}.cls-3{stroke-dasharray:2.85 2.85;}.cls-4{stroke-dasharray:3.07 3.07;}.cls-6{stroke-dasharray:3 3;}.cls-7{stroke-dasharray:3.07 3.07;}.cls-8{stroke-dasharray:2.93 2.93;}.cls-9{fill:#0b181d;}</style></defs><title>block-title-4</title><polygon class="cls-1" points="252.08 54.58 285.39 73.62 251.86 92.97 218.55 73.93 252.08 54.58"/><polygon class="cls-1" points="285.13 73.74 285.51 112.26 252.13 131.54 251.74 93.01 285.13 73.74"/><polygon class="cls-1" points="252.13 92.95 252.51 131.73 219.13 112.65 218.74 73.87 252.13 92.95"/><path class="cls-2" d="M214.14,137.18a13.83,13.83,0,0,1-1.49-.23"/><path class="cls-3" d="M210,136a8.15,8.15,0,0,1-2.09-1.57c-4.75-5-2.46-15.61,5-28.06"/><path class="cls-2" d="M213.57,105.15l.8-1.27"/><path class="cls-2" d="M293.46,69.18q-.23.7-.49,1.42"/><path class="cls-4" d="M291.83,73.45c-4.63,10.68-14.15,23.73-27,36-10.74,10.25-21.94,18.15-31.68,22.87"/><path class="cls-2" d="M231.77,133l-1.37.61"/><path class="cls-5" d="M213.58,137.11a9.45,9.45,0,0,1-5.7-2.69"/><path class="cls-5" d="M293.21,69.95c-3.91,11.24-14.08,25.86-28.36,39.48-11.84,11.29-24.23,19.74-34.62,24.22"/><path class="cls-5" d="M260.83,59.25C273.3,51.92,284.23,49,290.23,52"/><path class="cls-5" d="M217.63,49.3c-3.46,0-6.25.89-8.11,2.84"/><path class="cls-5" d="M266.48,77.13c-11.18-10.67-22.85-18.79-32.86-23.43"/><path class="cls-6" d="M218.55,49.32c-3.89-.2-7,.69-9,2.81"/><path class="cls-6" d="M262.46,127.31c14.25,8.37,26.5,11,31.67,5.55,8.1-8.49-4.28-33.44-27.64-55.73-10.88-10.38-22.21-18.35-32-23"/><path class="cls-2" d="M218.55,49.32q-.77,0-1.5,0"/><path class="cls-7" d="M214,49.67a8.91,8.91,0,0,0-4.49,2.46c-4.74,5-2.47,15.56,4.9,28"/><path class="cls-2" d="M215.21,81.4l.8,1.27"/><path class="cls-2" d="M294.13,132.86a7.87,7.87,0,0,0,.93-1.17"/><path class="cls-8" d="M296.21,129c2.8-10.75-9.24-32.33-29.72-51.87-9.87-9.42-20.13-16.86-29.29-21.67"/><path class="cls-2" d="M235.89,54.79l-1.34-.66"/><polygon class="cls-1" points="225.84 44.88 233.56 49.29 225.79 53.78 218.07 49.37 225.84 44.88"/><polygon class="cls-1" points="234.13 49.01 234.22 58.35 226.13 63.02 226.03 53.68 234.13 49.01"/><polygon class="cls-1" points="226.13 53.67 226.22 63.07 218.13 58.44 218.03 49.04 226.13 53.67"/><polygon class="cls-1" points="293.59 51.57 301.31 55.98 293.54 60.46 285.83 56.05 293.59 51.57"/><polygon class="cls-1" points="301.13 55.7 301.22 65.03 293.13 69.71 293.03 60.37 301.13 55.7"/><polygon class="cls-1" points="294.13 60.35 294.22 69.75 286.13 65.13 286.03 55.73 294.13 60.35"/><polygon class="cls-1" points="221.89 126.61 229.61 131.02 221.84 135.51 214.12 131.1 221.89 126.61"/><polygon class="cls-1" points="230.13 130.74 230.22 140.08 222.13 144.75 222.03 135.42 230.13 130.74"/><polygon class="cls-1" points="222.13 135.4 222.22 144.8 214.13 140.17 214.04 130.77 222.13 135.4"/><path class="cls-9" d="M0,68.8C0,36.2,14.4,0,51,0c36.4,0,51,36.2,51,68.8,0,32.4-14.6,69-51,69C14.4,137.8,0,101.2,0,68.8Zm85,0c0-26.6-8.6-54-34-54s-34,27.4-34,54S25.6,123,51,123,85,95.4,85,68.8Z"/><path class="cls-9" d="M182,135.4V101.6H118.6V87.8L175.8,2h22.8V87h18.8v14.6H198.6v33.8Zm0-118L135.2,87H182Z"/></svg>