<svg id="Layer_4" data-name="Layer 4" xmlns="http://www.w3.org/2000/svg" width="303.35" height="137.8" viewBox="0 0 303.35 137.8"><defs><style>.cls-1{fill:none;stroke:#0b181d;stroke-width:3px;}.cls-2{fill:#0b181d;}</style></defs><title>block-title-2</title><line class="cls-1" x1="290.85" y1="91.4" x2="290.85" y2="129.4"/><path class="cls-1" d="M215.85,129.4V81.46a2.57,2.57,0,0,1,2.57-2.57h26.93"/><polyline class="cls-1" points="284.85 91.4 284.85 122.9 221.85 122.9 221.85 84.9 245.35 84.9"/><path class="cls-1" d="M301.85,131.53V128.9H261c-.39,1.25-1.6,1.22-3.06,1H248.7a4.86,4.86,0,0,1-3.06-1h-40.8v2.63s3.35,2.37,5.82,2.37H296C298.49,133.9,301.85,131.53,301.85,131.53Z"/><path class="cls-1" d="M292.57,60.9H249.13a2.5,2.5,0,0,0-2.28,2.67V88.23a2.49,2.49,0,0,0,2.28,2.67H267l1,1.86,2.86,5.4,2.86-5.4,1-1.86h17.88a2.5,2.5,0,0,0,2.28-2.67V63.57A2.5,2.5,0,0,0,292.57,60.9Z"/><circle class="cls-1" cx="259.26" cy="75.35" r="2.26"/><circle class="cls-1" cx="270.94" cy="75.35" r="2.26"/><circle class="cls-1" cx="282.61" cy="75.35" r="2.26"/><path class="cls-2" d="M0,68.8C0,36.2,14.4,0,51,0c36.4,0,51,36.2,51,68.8,0,32.4-14.6,69-51,69C14.4,137.8,0,101.2,0,68.8Zm85,0c0-26.6-8.6-54-34-54s-34,27.4-34,54S25.6,123,51,123,85,95.4,85,68.8Z"/><path class="cls-2" d="M123,135.4V122.2c48-37.8,74-60,74-83,0-17-14-24.4-27.8-24.4-16,0-28.4,6.8-36.2,16.8L122.8,21C133,7.6,150.4,0,169.2,0,191.4,0,214,12.6,214,39.2c0,27.2-27.6,52-64.8,81.4h65.4v14.8Z"/></svg>