<svg id="Layer_4" data-name="Layer 4" xmlns="http://www.w3.org/2000/svg" width="285.3" height="137.8" viewBox="0 0 285.3 137.8"><defs><style>.cls-1,.cls-2{fill:none;stroke:#151515;stroke-miterlimit:10;}.cls-1{stroke-width:2.4px;}.cls-2{stroke-width:0.8px;}.cls-3{fill:#0b181d;}</style></defs><title>block-title-3</title><polyline class="cls-1" points="236.44 107.13 239.47 116.8 234.9 116.8"/><polyline class="cls-1" points="232.19 107.51 240.38 133.6 224.66 133.6 216.47 107.51"/><polyline class="cls-1" points="215.02 107.47 216.73 112.92 238.76 107.47"/><polygon class="cls-2" points="240.1 81 240.1 107.84 279.3 124.74 279.3 64.11 240.1 81"/><polyline class="cls-1" points="211.7 83.2 206.5 83.2 206.5 105.6 211.7 105.6"/><rect class="cls-2" x="211.3" y="81.6" width="28.8" height="26.4"/><rect class="cls-2" x="279.3" y="63.2" width="4.8" height="62.4"/><rect class="cls-1" x="279.3" y="63.2" width="4.8" height="62.4"/><polygon class="cls-1" points="240.1 81 240.1 107.84 279.3 124.74 279.3 64.11 240.1 81"/><rect class="cls-1" x="211.3" y="81.6" width="28.8" height="26.4"/><line class="cls-1" x1="214.9" y1="86.4" x2="233.3" y2="86.4"/><path class="cls-3" d="M0,68.8C0,36.2,14.4,0,51,0c36.4,0,51,36.2,51,68.8,0,32.4-14.6,69-51,69C14.4,137.8,0,101.2,0,68.8Zm85,0c0-26.6-8.6-54-34-54s-34,27.4-34,54S25.6,123,51,123,85,95.4,85,68.8Z"/><path class="cls-3" d="M118,115.8l9.8-10.4c7.8,10.4,21.4,17.6,37.2,17.6,19.4,0,31.2-9.6,31.2-25,0-16.6-13.6-23.6-33.2-23.6-5.6,0-11.8,0-13.8.2V59.4c2.2.2,8.4.2,13.8.2,16.8,0,31-6.6,31-22,0-14.8-13.6-22.8-29.8-22.8-14.6,0-25.4,5.6-35.2,16.2l-9.2-10.4C129.4,9,144.8,0,165.4,0c25.6,0,45.2,13,45.2,35.6,0,19.2-16.2,28.8-28.8,31,12.2,1,30.8,11.4,30.8,32.8,0,22.2-17.8,38.4-47.2,38.4C142.8,137.8,126.2,127.8,118,115.8Z"/></svg>