<svg id="Layer_4" data-name="Layer 4" xmlns="http://www.w3.org/2000/svg" width="276.32" height="137.8" viewBox="0 0 276.32 137.8"><defs><style>.cls-1{fill:#0b181d;}</style></defs><title>block-title-1</title><path class="cls-1" d="M263.32,127.9h-3V75.22A1.32,1.32,0,0,0,259,73.9H218.32v-3H259a4.32,4.32,0,0,1,4.32,4.32Z"/><polygon class="cls-1" points="258.32 123.9 218.32 123.9 218.32 120.9 255.32 120.9 255.32 79.9 218.32 79.9 218.32 76.9 258.32 76.9 258.32 123.9"/><path class="cls-1" d="M268.21,134.9H207.32v-3h60.89c1.57,0,3.87-1.31,5.11-2.13v-.87H229.54l-3.36,1h-6.86v-3h6.42l3.15-.94.09.29v-.35h47.34v5.4l-.6.45C275.29,132.07,271.41,134.9,268.21,134.9Z"/><path class="cls-1" d="M220.32,134.9h-56v-74h56Zm-53-3h50v-68h-50Z"/><rect class="cls-1" x="175.32" y="61.9" width="3" height="71"/><rect class="cls-1" x="170.32" y="61.9" width="3" height="71"/><path class="cls-1" d="M0,68.8C0,36.2,14.4,0,51,0c36.4,0,51,36.2,51,68.8,0,32.4-14.6,69-51,69C14.4,137.8,0,101.2,0,68.8Zm85,0c0-26.6-8.6-54-34-54s-34,27.4-34,54S25.6,123,51,123,85,95.4,85,68.8Z"/><path class="cls-1" d="M147.32,134.9V23.83L125.41,46.36,115.17,36.19l34.2-34.3h15v133Z"/></svg>